<?xml version="1.0" encoding="UTF-8" standalone="no"?>
<!-- Created with Inkscape (http://www.inkscape.org/) -->

<svg
   version="1.1"
   id="svg1"
   width="341.33334"
   height="341.33334"
   viewBox="0 0 341.33334 341.33334"
   sodipodi:docname="ico.svg"
   xml:space="preserve"
   inkscape:version="1.4.3 (0d15f75042, 2025-12-25)"
   xmlns:inkscape="http://www.inkscape.org/namespaces/inkscape"
   xmlns:sodipodi="http://sodipodi.sourceforge.net/DTD/sodipodi-0.dtd"
   xmlns="http://www.w3.org/2000/svg"
   xmlns:svg="http://www.w3.org/2000/svg"><defs
     id="defs1"><clipPath
       clipPathUnits="userSpaceOnUse"
       id="clipPath1"><circle
         style="fill:#3b82f6;stroke-width:3.47867"
         id="circle1"
         cx="170.66667"
         cy="170.66667"
         r="157" /></clipPath></defs><sodipodi:namedview
     id="namedview1"
     pagecolor="#5f6368"
     bordercolor="#000000"
     borderopacity="0.25"
     inkscape:showpageshadow="2"
     inkscape:pageopacity="0.0"
     inkscape:pagecheckerboard="0"
     inkscape:deskcolor="#d1d1d1"
     inkscape:zoom="1.2304687"
     inkscape:cx="93.053971"
     inkscape:cy="129.21905"
     inkscape:window-width="1920"
     inkscape:window-height="1043"
     inkscape:window-x="0"
     inkscape:window-y="0"
     inkscape:window-maximized="1"
     inkscape:current-layer="g1" /><g
     inkscape:groupmode="layer"
     inkscape:label="Image"
     id="g1"><path
       style="fill:#feffff;fill-opacity:1"
       d="m 113.81074,209.9145 c 0.26597,-15.74664 0,-15.76752 0,-15.76752 C 64.040197,170.6539 62.830434,171.28806 63.887125,170.23134 64.186396,169.93207 75.39164,164.77213 88.787666,158.7648 l 24.356404,-10.92242 c 0.19401,-16.36626 0.24121,-0.45888 -0.217,-16.42354 -23.231733,9.29503 -47.89765,19.2753 -71.116309,29.73298 v 9.12221 9.12221 c 47.847286,20.62413 48.023243,20.39079 71.999979,30.51826 z"
       id="path1"
       sodipodi:nodetypes="ccsscccccc" /><path
       style="fill:#feffff;fill-opacity:1"
       d="m 227.5226,209.9145 c -0.26597,-15.74664 0,-15.76752 0,-15.76752 49.77054,-23.49308 50.98031,-22.85892 49.92361,-23.91564 -0.29927,-0.29927 -11.50451,-5.45921 -24.90053,-11.46654 l -24.35641,-10.92242 c -0.19401,-16.36626 -0.24121,-0.45888 0.217,-16.42354 23.23173,9.29503 47.89765,19.2753 71.11631,29.73298 v 9.12221 9.12221 c -47.84729,20.62413 -48.02324,20.39079 -71.99998,30.51826 z"
       id="path1-93"
       sodipodi:nodetypes="ccsscccccc" /><path
       d="m 202.24658,239.57 3.08676,-1.17359 v -11.2983 -11.2983 c -15.91291,8.02008 -26.66667,0.81108 -26.66667,-4.28477 v -29.92565 -29.92565 h 13.33334 13.33333 V 140.99707 130.33041 H 192.00001 178.66667 V 114.99707 99.663739 h -12 -12 v 15.333331 15.33334 H 145.33334 136 v 10.66666 10.66667 h 9.33334 9.33333 l 0.0293,33 0.0293,33 c 1.28303,18.41895 20.11009,25.41332 37.18801,23.77501 3.98562,-0.38235 8.63562,-1.22328 10.33333,-1.86875 z"
       style="fill:#84f5bf;fill-opacity:1"
       id="path1-9"
       sodipodi:nodetypes="ccccsccccccccccccccccccccccssc" /></g></svg>
